<svg width="40" height="40" viewBox="0 0 40 40" fill="none" xmlns="http://www.w3.org/2000/svg">
<path d="M19.9903 40C17.2295 40 14.6428 39.4773 12.2303 38.4318C9.81777 37.3992 7.69553 35.9664 5.86357 34.1336C4.03161 32.3007 2.59313 30.1775 1.54814 27.7638C0.516046 25.3501 0 22.7622 0 20C0 17.2378 0.516046 14.6499 1.54814 12.2362C2.59313 9.80962 4.03161 7.68635 5.86357 5.86641C7.69553 4.03356 9.81777 2.60084 12.2303 1.56825C14.6428 0.522749 17.2295 0 19.9903 0C22.7512 0 25.3378 0.522749 27.7504 1.56825C30.1758 2.60084 32.3045 4.03356 34.1364 5.86641C35.9684 7.68635 37.4004 9.80962 38.4325 12.2362C39.4775 14.6499 40 17.2378 40 20C40 22.7622 39.4775 25.3501 38.4325 27.7638C37.4004 30.1775 35.9684 32.3007 34.1364 34.1336C32.3045 35.9664 30.1758 37.3992 27.7504 38.4318C25.3378 39.4773 22.7512 40 19.9903 40ZM20.0097 36.7086C21.4417 36.7086 22.8802 36.515 24.3251 36.1278C25.7829 35.7406 27.1569 35.1791 28.447 34.4434C29.7371 33.7076 30.8724 32.817 31.8529 31.7715C31.1176 30.6486 30.1435 29.6999 28.9308 28.9255C27.731 28.1381 26.3699 27.5444 24.8476 27.1442C23.3382 26.7312 21.7255 26.5247 20.0097 26.5247C18.2551 26.5247 16.6167 26.7312 15.0943 27.1442C13.572 27.5573 12.2174 28.1575 11.0305 28.9448C9.84357 29.7193 8.88244 30.6615 8.14707 31.7715C9.11466 32.817 10.2435 33.7076 11.5336 34.4434C12.8366 35.1791 14.2106 35.7406 15.6555 36.1278C17.1005 36.515 18.5518 36.7086 20.0097 36.7086ZM20.0097 23.1752C21.2611 23.1881 22.3964 22.8719 23.4156 22.2265C24.4348 21.5682 25.2411 20.6841 25.8345 19.5741C26.428 18.4511 26.7247 17.1926 26.7247 15.7986C26.7247 14.4821 26.4215 13.2753 25.8152 12.1781C25.2217 11.081 24.4154 10.2033 23.3962 9.54501C22.377 8.87383 21.2482 8.53824 20.0097 8.53824C18.7454 8.53824 17.6036 8.87383 16.5844 9.54501C15.5652 10.2033 14.7525 11.081 14.1461 12.1781C13.5527 13.2753 13.2624 14.4821 13.2753 15.7986C13.2753 17.1926 13.572 18.4447 14.1655 19.5547C14.7589 20.6647 15.5588 21.5424 16.5651 22.1878C17.5843 22.8332 18.7325 23.1623 20.0097 23.1752Z" fill="#F6F4F1"/>
</svg>
